<svg width="34" height="34" viewBox="0 0 34 34" fill="none" xmlns="http://www.w3.org/2000/svg">
<path d="M11 21.5C11.5 22.5 13.4 24.5 17 24.5C20.6 24.5 22.5 22.5 23 21.5M11.4686 12.9687H12.0311M11.4686 13.5312H12.0311M21.9686 12.9687H22.5311M21.9686 13.5312H22.5311M32 17C32 25.2843 25.2843 32 17 32C8.71573 32 2 25.2843 2 17C2 8.71573 8.71573 2 17 2C25.2843 2 32 8.71573 32 17ZM12.5 13.25C12.5 13.6642 12.1642 14 11.75 14C11.3358 14 11 13.6642 11 13.25C11 12.8358 11.3358 12.5 11.75 12.5C12.1642 12.5 12.5 12.8358 12.5 13.25ZM23 13.25C23 13.6642 22.6642 14 22.25 14C21.8358 14 21.5 13.6642 21.5 13.25C21.5 12.8358 21.8358 12.5 22.25 12.5C22.6642 12.5 23 12.8358 23 13.25Z" stroke="black" stroke-opacity="0.9" stroke-width="3.87406" stroke-linecap="round"/>
</svg>
