<svg width="30" height="30" viewBox="0 0 30 30" fill="none" xmlns="http://www.w3.org/2000/svg">
<path d="M15 30C12.0333 30 9.13319 29.1203 6.66645 27.472C4.19972 25.8238 2.27713 23.4811 1.14181 20.7403C0.00649919 17.9994 -0.290551 14.9834 0.288227 12.0736C0.867006 9.16394 2.29562 6.49119 4.3934 4.3934C6.49119 2.29562 9.16394 0.867006 12.0736 0.288227C14.9834 -0.290551 17.9994 0.00649919 20.7403 1.14181C23.4811 2.27713 25.8238 4.19972 27.472 6.66645C29.1203 9.13319 30 12.0333 30 15C30 18.9782 28.4196 22.7936 25.6066 25.6066C22.7936 28.4196 18.9782 30 15 30ZM15 2.50001C12.5277 2.50001 10.111 3.23312 8.05538 4.60664C5.99976 5.98015 4.39761 7.93239 3.45151 10.2165C2.50542 12.5005 2.25787 15.0139 2.74019 17.4386C3.22251 19.8634 4.41301 22.0907 6.16117 23.8388C7.90933 25.587 10.1366 26.7775 12.5614 27.2598C14.9861 27.7421 17.4995 27.4946 19.7835 26.5485C22.0676 25.6024 24.0199 24.0002 25.3934 21.9446C26.7669 19.889 27.5 17.4723 27.5 15C27.5 11.6848 26.183 8.50537 23.8388 6.16117C21.4946 3.81697 18.3152 2.50001 15 2.50001Z" fill="black"/>
<path d="M15 19.5833C14.8358 19.5841 14.673 19.5521 14.5213 19.4891C14.3697 19.4261 14.2321 19.3335 14.1167 19.2167L7.45 12.55C7.2292 12.313 7.10899 11.9996 7.1147 11.6758C7.12042 11.352 7.2516 11.043 7.48063 10.814C7.70965 10.5849 8.01862 10.4538 8.34246 10.448C8.66629 10.4423 8.9797 10.5625 9.21666 10.7833L15 16.5667L20.7833 10.7833C21.0203 10.5625 21.3337 10.4423 21.6575 10.448C21.9814 10.4538 22.2903 10.5849 22.5194 10.814C22.7484 11.043 22.8796 11.352 22.8853 11.6758C22.891 11.9996 22.7708 12.313 22.55 12.55L15.8833 19.2167C15.7679 19.3335 15.6303 19.4261 15.4787 19.4891C15.327 19.5521 15.1642 19.5841 15 19.5833Z" fill="black"/>
</svg>
