<svg width="18" height="16" viewBox="0 0 18 16" fill="none" xmlns="http://www.w3.org/2000/svg">
<path d="M9.64123 1.53722C9.39009 0.820928 8.29566 0.820928 8.04368 1.53722L6.76782 5.17232C6.71287 5.32837 6.60601 5.46433 6.46253 5.56072C6.31905 5.65711 6.14631 5.709 5.96905 5.70896H1.84162C1.02857 5.70896 0.689233 6.67334 1.34774 7.11664L4.68731 9.36273C4.83076 9.45929 4.93753 9.59542 4.9923 9.75162C5.04707 9.90781 5.04704 10.0761 4.99221 10.2322L3.71719 13.8673C3.46521 14.5836 4.35134 15.1801 5.009 14.7368L8.34858 12.4908C8.49211 12.3941 8.665 12.3421 8.84246 12.3421C9.01991 12.3421 9.1928 12.3941 9.33634 12.4908L12.6759 14.7368C13.3336 15.1801 14.2197 14.5844 13.9677 13.8673L12.6927 10.2322C12.6379 10.0761 12.6378 9.90781 12.6926 9.75162C12.7474 9.59542 12.8541 9.45929 12.9976 9.36273L16.3372 7.11664C16.9948 6.67334 16.6572 5.70896 15.8433 5.70896H11.715C11.5379 5.70883 11.3654 5.65687 11.222 5.56049C11.0787 5.46411 10.972 5.32825 10.9171 5.17232L9.64123 1.53722Z" stroke="#F9C94E" stroke-linecap="round" stroke-linejoin="round"/>
</svg>
