<svg width="16" height="14" viewBox="0 0 16 14" fill="none" xmlns="http://www.w3.org/2000/svg">
<path d="M8.64123 0.537216C8.39009 -0.179072 7.29566 -0.179072 7.04368 0.537216L5.76782 4.17232C5.71287 4.32837 5.60601 4.46433 5.46253 4.56072C5.31905 4.65711 5.14631 4.709 4.96905 4.70896H0.84162C0.0285657 4.70896 -0.310767 5.67334 0.34774 6.11664L3.68731 8.36273C3.83076 8.45929 3.93753 8.59542 3.9923 8.75162C4.04707 8.90781 4.04704 9.07605 3.99221 9.23223L2.71719 12.8673C2.46521 13.5836 3.35134 14.1801 4.009 13.7368L7.34858 11.4908C7.49211 11.3941 7.665 11.3421 7.84246 11.3421C8.01991 11.3421 8.1928 11.3941 8.33634 11.4908L11.6759 13.7368C12.3336 14.1801 13.2197 13.5844 12.9677 12.8673L11.6927 9.23223C11.6379 9.07605 11.6378 8.90781 11.6926 8.75162C11.7474 8.59542 11.8541 8.45929 11.9976 8.36273L15.3372 6.11664C15.9948 5.67334 15.6572 4.70896 14.8433 4.70896H10.715C10.5379 4.70883 10.3654 4.65687 10.222 4.56049C10.0787 4.46411 9.972 4.32825 9.91709 4.17232L8.64123 0.537216Z" fill="#F9C94E"/>
</svg>
