<svg width="30" height="30" viewBox="0 0 30 30" fill="none" xmlns="http://www.w3.org/2000/svg">
<path d="M12.8325 7.5C11.8556 7.5 11.1231 7.53906 10.635 7.61719C10.1469 7.69531 9.72688 7.83219 9.375 8.02781C8.78875 8.34031 8.33938 8.78969 8.02688 9.37594C7.83125 9.72781 7.69437 10.1478 7.61625 10.6359C7.53812 11.1241 7.49906 11.8566 7.49906 12.8334V20.9194C7.49906 21.8963 7.53812 22.6288 7.61625 23.1169C7.69437 23.605 7.83125 24.025 8.02688 24.3769C8.33938 24.9631 8.78875 25.4125 9.375 25.725C9.72688 25.9206 10.1469 26.0575 10.635 26.1356C11.1231 26.2138 11.8556 26.2528 12.8325 26.2528H17.1684C18.1453 26.2528 18.8778 26.2138 19.3659 26.1356C19.8541 26.0575 20.2741 25.9206 20.6259 25.725C21.2122 25.4125 21.6616 24.9631 21.9741 24.3769C22.1697 24.025 22.3066 23.605 22.3847 23.1169C22.4628 22.6288 22.5019 21.8963 22.5019 20.9194V12.8334C22.5019 11.8566 22.4628 11.1241 22.3847 10.6359C22.3066 10.1478 22.1697 9.72781 21.9741 9.37594C21.6616 8.78969 21.2122 8.34031 20.6259 8.02781C20.2741 7.83219 19.8541 7.69531 19.3659 7.61719C18.8778 7.53906 18.1453 7.5 17.1684 7.5H12.8325V7.5ZM12.8325 5.625H17.1684C18.3797 5.625 19.2978 5.68844 19.9228 5.81531C20.5478 5.94219 21.0753 6.1325 21.5053 6.38625C22.4234 6.87438 23.1266 7.5775 23.6147 8.49563C23.8684 8.92563 24.0588 9.45313 24.1856 10.0781C24.3125 10.7031 24.3759 11.6213 24.3759 12.8325V20.9184C24.3759 22.1297 24.3125 23.0478 24.1856 23.6728C24.0588 24.2978 23.8684 24.8253 23.6147 25.2553C23.1266 26.1734 22.4234 26.8766 21.5053 27.3647C21.0753 27.6184 20.5478 27.8088 19.9228 27.9356C19.2978 28.0625 18.3797 28.1259 17.1684 28.1259H12.8325C11.6213 28.1259 10.7031 28.0625 10.0781 27.9356C9.45313 27.8088 8.92563 27.6184 8.49563 27.3647C7.5775 26.8766 6.87437 26.1734 6.38625 25.2553C6.1325 24.8253 5.94219 24.2978 5.81531 23.6728C5.68844 23.0478 5.625 22.1297 5.625 20.9184V12.8325C5.625 11.6213 5.68844 10.7031 5.81531 10.0781C5.94219 9.45313 6.1325 8.92563 6.38625 8.49563C6.87437 7.5775 7.5775 6.87438 8.49563 6.38625C8.92563 6.1325 9.45313 5.94219 10.0781 5.81531C10.7031 5.68844 11.6213 5.625 12.8325 5.625V5.625ZM15 9.375C15.625 9.375 15.9375 9.6875 15.9375 10.3125V14.0625C15.9375 14.6875 15.625 15 15 15C14.375 15 14.0625 14.6875 14.0625 14.0625V10.3125C14.0625 9.6875 14.375 9.375 15 9.375ZM15.9375 6.5625C15.9375 6.83625 15.8497 7.06094 15.6741 7.23656C15.4984 7.41219 15.2738 7.5 15 7.5C14.7263 7.5 14.5016 7.41219 14.3259 7.23656C14.1503 7.06094 14.0625 6.83625 14.0625 6.5625V4.6875C14.0625 4.41375 13.9747 4.18906 13.7991 4.01344C13.6234 3.83781 13.3988 3.75 13.125 3.75H10.3125C10.0388 3.75 9.81406 3.66219 9.63844 3.48656C9.46281 3.31094 9.375 3.08625 9.375 2.8125C9.375 2.53875 9.46281 2.31406 9.63844 2.13844C9.81406 1.96281 10.0388 1.875 10.3125 1.875H13.125C13.9256 1.89438 14.5897 2.16781 15.1172 2.69531C15.6447 3.22281 15.9181 3.88688 15.9375 4.6875V6.5625Z" fill="#08080A" fill-opacity="0.96"/>
</svg>
