<svg width="30" height="30" viewBox="0 0 30 30" fill="none" xmlns="http://www.w3.org/2000/svg">
<path d="M5.12715 25.0781L9.08246 23.76L9.78559 24.0825C11.3875 24.9031 13.1259 25.3134 15.0009 25.3134C18.1846 25.2159 20.8359 24.1759 22.9546 22.1934C25.0734 20.2109 26.1721 17.8134 26.2509 15.0009C26.1728 12.1884 25.074 9.79093 22.9546 7.80843C20.8353 5.82593 18.184 4.78593 15.0009 4.68843C11.8171 4.78593 9.1659 5.82593 7.04715 7.80843C4.9284 9.79093 3.82965 12.1884 3.7509 15.0009C3.7509 16.0166 3.92684 17.0225 4.27871 18.0187C4.63059 19.015 5.14809 19.9525 5.83121 20.8312L6.47621 21.6806L5.12715 25.0781ZM3.77902 27.4809C3.40777 27.5984 3.09027 27.5153 2.82652 27.2316C2.56277 26.9478 2.49934 26.6206 2.63621 26.25L4.3359 21.9722C3.55465 20.9372 2.94902 19.8287 2.51902 18.6469C2.08902 17.465 1.87402 16.2491 1.87402 14.9991C1.95215 11.7766 3.20215 8.96905 5.62402 6.57655C8.0459 4.18405 11.1709 2.92905 14.999 2.81155C18.8271 2.92905 21.9521 4.18405 24.374 6.57655C26.7959 8.96905 28.0459 11.7766 28.124 14.9991C28.0459 18.2216 26.7959 21.0291 24.374 23.4216C21.9521 25.8141 18.8271 27.0691 14.999 27.1866C12.8703 27.1866 10.8487 26.7178 8.93434 25.7803L3.77902 27.4809ZM15 16.4944C14.7262 16.4944 14.4771 16.4309 14.2528 16.3041C14.0284 16.1772 13.8478 15.9916 13.7109 15.7472C13.574 15.5028 13.5056 15.2537 13.5056 15C13.5056 14.7462 13.574 14.4972 13.7109 14.2528C13.8478 14.0084 14.0284 13.8228 14.2528 13.6959C14.4771 13.5691 14.7262 13.5056 15 13.5056C15.43 13.5056 15.7865 13.6472 16.0696 13.9303C16.3528 14.2134 16.4943 14.57 16.4943 15C16.4943 15.43 16.3528 15.7866 16.0696 16.0697C15.7865 16.3528 15.43 16.4944 15 16.4944V16.4944ZM20.625 16.4944C20.3512 16.4944 20.1021 16.4309 19.8778 16.3041C19.6534 16.1772 19.4728 15.9916 19.3359 15.7472C19.199 15.5028 19.1306 15.2537 19.1306 15C19.1306 14.7462 19.199 14.4972 19.3359 14.2528C19.4728 14.0084 19.6534 13.8228 19.8778 13.6959C20.1021 13.5691 20.3512 13.5056 20.625 13.5056C21.055 13.5056 21.4115 13.6472 21.6946 13.9303C21.9778 14.2134 22.1193 14.57 22.1193 15C22.1193 15.43 21.9778 15.7866 21.6946 16.0697C21.4115 16.3528 21.055 16.4944 20.625 16.4944V16.4944ZM9.37496 16.4944C9.10121 16.4944 8.85215 16.4309 8.62777 16.3041C8.4034 16.1772 8.22277 15.9916 8.0859 15.7472C7.94902 15.5028 7.88059 15.2537 7.88059 15C7.88059 14.7462 7.94902 14.4972 8.0859 14.2528C8.22277 14.0084 8.4034 13.8228 8.62777 13.6959C8.85215 13.5691 9.10121 13.5056 9.37496 13.5056C9.80496 13.5056 10.1615 13.6472 10.4446 13.9303C10.7278 14.2134 10.8693 14.57 10.8693 15C10.8693 15.43 10.7278 15.7866 10.4446 16.0697C10.1615 16.3528 9.80496 16.4944 9.37496 16.4944V16.4944Z" fill="#08080A" fill-opacity="0.96"/>
</svg>
