<svg width="29" height="25" viewBox="0 0 29 25" fill="none" xmlns="http://www.w3.org/2000/svg">
<path d="M9.58031 18.75H3.75C3.47625 18.75 3.25156 18.6622 3.07594 18.4866C2.90031 18.3109 2.8125 18.0863 2.8125 17.8125V1.875H0.9375C0.66375 1.875 0.439063 1.78719 0.263438 1.61156C0.0878125 1.43594 0 1.21125 0 0.9375C0 0.66375 0.0878125 0.439063 0.263438 0.263438C0.439063 0.0878126 0.66375 0 0.9375 0H27.1875C27.4613 0 27.6859 0.0878126 27.8616 0.263438C28.0372 0.439063 28.125 0.66375 28.125 0.9375C28.125 1.21125 28.0372 1.43594 27.8616 1.61156C27.6859 1.78719 27.4613 1.875 27.1875 1.875H25.3125V17.8125C25.3125 18.0863 25.2247 18.3109 25.0491 18.4866C24.8734 18.6622 24.6488 18.75 24.375 18.75H18.5447L21.7969 24.375H19.6284L16.3763 18.75H11.7469L8.49469 24.375H6.32625L9.58031 18.75ZM23.4375 1.875H4.6875V16.875H23.4375V1.875ZM9.11156 11.9241C8.91594 12.0997 8.69125 12.1875 8.4375 12.1875C8.18375 12.1875 7.96406 12.0947 7.77844 11.9091C7.59281 11.7234 7.5 11.5037 7.5 11.25C7.5 10.9963 7.58781 10.7716 7.76344 10.5759L12.0994 6.26906L15.7613 9.02344L18.9544 5.03906C19.1888 4.74594 19.4866 4.62375 19.8478 4.6725C20.2091 4.72125 20.4531 4.91656 20.58 5.25844C20.7069 5.60031 20.6531 5.91781 20.4188 6.21094L16.1119 11.6016L12.2738 8.73L9.11156 11.9241Z" fill="#08080A" fill-opacity="0.96"/>
</svg>
