<svg width="30" height="30" viewBox="0 0 30 30" fill="none" xmlns="http://www.w3.org/2000/svg">
<path d="M18.2823 12.2222H1.27551C0.937224 12.2222 0.612793 12.0467 0.373588 11.7341C0.134384 11.4215 0 10.9976 0 10.5556C0 10.1136 0.134384 9.68963 0.373588 9.37707C0.612793 9.06451 0.937224 8.88892 1.27551 8.88892H18.2823C18.6206 8.88892 18.945 9.06451 19.1842 9.37707C19.4234 9.68963 19.5578 10.1136 19.5578 10.5556C19.5578 10.9976 19.4234 11.4215 19.1842 11.7341C18.945 12.0467 18.6206 12.2222 18.2823 12.2222Z" fill="black"/>
<path d="M28.7245 3.33333H1.51361C1.17532 3.33333 0.850891 3.15774 0.611687 2.84518C0.372482 2.53262 0.238098 2.10869 0.238098 1.66667C0.238098 1.22464 0.372482 0.800716 0.611687 0.488155C0.850891 0.175594 1.17532 1.31734e-08 1.51361 0H28.7245C29.0628 1.31734e-08 29.3872 0.175594 29.6264 0.488155C29.8656 0.800716 30 1.22464 30 1.66667C30 2.10869 29.8656 2.53262 29.6264 2.84518C29.3872 3.15774 29.0628 3.33333 28.7245 3.33333Z" fill="black"/>
<path d="M28.7245 21.1111H1.51361C1.17532 21.1111 0.850891 20.9355 0.611687 20.6229C0.372482 20.3104 0.238098 19.8865 0.238098 19.4444C0.238098 19.0024 0.372482 18.5785 0.611687 18.2659C0.850891 17.9534 1.17532 17.7778 1.51361 17.7778H28.7245C29.0628 17.7778 29.3872 17.9534 29.6264 18.2659C29.8656 18.5785 30 19.0024 30 19.4444C30 19.8865 29.8656 20.3104 29.6264 20.6229C29.3872 20.9355 29.0628 21.1111 28.7245 21.1111Z" fill="black"/>
<path d="M18.2823 30H1.27551C0.937224 30 0.612793 29.8244 0.373588 29.5119C0.134384 29.1993 0 28.7754 0 28.3334C0 27.8913 0.134384 27.4674 0.373588 27.1548C0.612793 26.8423 0.937224 26.6667 1.27551 26.6667H18.2823C18.6206 26.6667 18.945 26.8423 19.1842 27.1548C19.4234 27.4674 19.5578 27.8913 19.5578 28.3334C19.5578 28.7754 19.4234 29.1993 19.1842 29.5119C18.945 29.8244 18.6206 30 18.2823 30Z" fill="black"/>
</svg>
