<svg width="30" height="30" viewBox="0 0 30 30" fill="none" xmlns="http://www.w3.org/2000/svg">
<path d="M29.8971 15.4971C29.8286 15.6514 29.7429 15.7886 29.6229 15.9086L25.3371 20.1943C25.08 20.4514 24.7543 20.5714 24.4286 20.5714C24.1029 20.5714 23.7771 20.4514 23.52 20.1943C23.0229 19.6971 23.0229 18.8743 23.52 18.3771L25.6114 16.2857H16.2857V25.6114L18.3771 23.52C18.8743 23.0229 19.6971 23.0229 20.1943 23.52C20.6914 24.0171 20.6914 24.84 20.1943 25.3371L15.9086 29.6229C15.7886 29.7429 15.6514 29.8286 15.4971 29.8971C15.3429 29.9657 15.1714 30 15 30C14.8286 30 14.6571 29.9657 14.5029 29.8971C14.3486 29.8286 14.2114 29.7429 14.0914 29.6229L9.80571 25.3371C9.30857 24.84 9.30857 24.0171 9.80571 23.52C10.3029 23.0229 11.1257 23.0229 11.6229 23.52L13.7143 25.6114V16.2857H4.38857L6.48 18.3771C6.97714 18.8743 6.97714 19.6971 6.48 20.1943C6.22286 20.4514 5.89714 20.5714 5.57143 20.5714C5.24571 20.5714 4.92 20.4514 4.66286 20.1943L0.377143 15.9086C0.257143 15.7886 0.171429 15.6514 0.102857 15.4971C-0.0342857 15.1886 -0.0342857 14.8286 0.102857 14.52C0.171429 14.3657 0.257143 14.2286 0.377143 14.1086L4.66286 9.82286C5.16 9.32571 5.98286 9.32571 6.48 9.82286C6.97714 10.32 6.97714 11.1429 6.48 11.64L4.38857 13.7314H13.7143V4.38857L11.6229 6.48C11.1257 6.97714 10.3029 6.97714 9.80571 6.48C9.30857 5.98286 9.30857 5.16 9.80571 4.66286L14.0914 0.377143C14.2114 0.257143 14.3486 0.171429 14.5029 0.102857C14.8114 -0.0342857 15.1714 -0.0342857 15.48 0.102857C15.6343 0.171429 15.7714 0.257143 15.8914 0.377143L20.1771 4.66286C20.6743 5.16 20.6743 5.98286 20.1771 6.48C19.92 6.73714 19.5943 6.85714 19.2686 6.85714C18.9429 6.85714 18.6171 6.73714 18.36 6.48L16.2686 4.38857V13.7143H25.5943L23.5029 11.6229C23.0057 11.1257 23.0057 10.3029 23.5029 9.80571C24 9.30857 24.8229 9.30857 25.32 9.80571L29.6057 14.0914C29.7257 14.2114 29.8114 14.3486 29.88 14.5029C30.0171 14.8114 30.0171 15.1714 29.88 15.48L29.8971 15.4971Z" fill="black"/>
</svg>
